<?xml version="1.0" standalone="no"?>
<!DOCTYPE svg PUBLIC "-//W3C//DTD SVG 20010904//EN"
 "http://www.w3.org/TR/2001/REC-SVG-20010904/DTD/svg10.dtd">
<svg version="1.0" xmlns="http://www.w3.org/2000/svg" width="16.000000pt" height="16.000000pt" viewBox="0 0 16.000000 16.000000" preserveAspectRatio="xMidYMid meet">
<g id="campaignkit">
<path d="M15.764 5.154l-2.227 2.332c-0.272,0.284 -0.272,0.744 0,1.028l2.227 2.332c0.087,0.091 0.236,0.027 0.236,-0.102l0 -5.488c0,-0.129 -0.149,-0.193 -0.236,-0.102zm-9.721 3.177c-0.123,-0.362 -0.039,-0.777 0.252,-1.065l2.507 -2.473c0.116,-0.114 0.116,-0.298 0,-0.411l-2.196 -2.168c-0.29,-0.285 -0.759,-0.285 -1.049,0l-5.34 5.268c-0.289,0.286 -0.289,0.75 0,1.036l5.34 5.268c0.29,0.285 0.759,0.285 1.049,0l0.896 -0.885 -1.459 -4.57zm6.667 0c-0.123,-0.362 -0.04,-0.777 0.252,-1.065l2.507 -2.473c0.115,-0.114 0.115,-0.298 0,-0.411l-2.196 -2.168c-0.29,-0.285 -0.76,-0.285 -1.05,0l-5.339 5.268c-0.29,0.286 -0.29,0.75 0,1.036l5.339 5.268c0.29,0.285 0.76,0.285 1.05,0l0.896 -0.885 -1.459 -4.57z"/>
</g>
</svg>
